Barbarossa (2009) 1080p MKV AC3+DTS NLSubs-DMT.mkv

[IMG]http://img214.imageshack.us/img214/6903/frontbm.jpg[/IMG]

PLOT

De noordelijke landen worden geregeerd door de Germaanse keizer Frederik I, bijgenaamd "Barbarossa". 
Het is zijn droom om ook centraal Europa te veroveren, zodat zijn rijk weer net zo groot wordt, 
als eens het rijk van Karel de Grote was. Een jongeman uit Milaan, genaamd Alberto Da Giussano, 
heeft echter een klein leger opgericht, bestaande uit 900 vechtlustige mannen die nergens voor terugdeinzen. 
Alberto is vastbesloten om de keizer te verslaan en Noord-Europa te bevrijden.
 
http://www.youtube.com/watch?v=_nMhGG5dkM4

MM:    http://www.moviemeter.nl/film/57381

IMDB:    http://www.imdb.com/title/tt1242516/

INFO

General
Complete name                    : Barbarossa.2009.1080p.AC3.DTS.NLSubs-DMT.mkv
Format                           : Matroska
File size                        : 9.30 GiB
Duration                         : 2h 3mn
Overall bit rate                 : 10.8 Mbps
Encoded date                     : UTC 2010-10-20 06:51:41
Writing application              : mkvmerge v4.3.0 ('Escape from the Island') built on Sep  5 2010 10:30:51
Writing library                  : libebml v1.0.0 + libmatroska v1.0.0

Video
ID                               : 1
Format                           : AVC
Format/Info                      : Advanced Video Codec
Format profile                   : High@L4.1
Format settings, CABAC           : Yes
Format settings, ReFrames        : 3 frames
Muxing mode                      : Container profile=Unknown@4.1
Codec ID                         : V_MPEG4/ISO/AVC
Duration                         : 2h 3mn
Bit rate                         : 8 614 Kbps
Width                            : 1 920 pixels
Height                           : 816 pixels
Display aspect ratio             : 2.35:1
Original display aspect ratio    : 2.35:1
Frame rate                       : 25.000 fps
Color space                      : YUV
Chroma subsampling               : 4:2:0
Bit depth                        : 8 bits
Scan type                        : Progressive
Bits/(Pixel*Frame)               : 0.220
Stream size                      : 7.26 GiB (78%)
Writing library                  : x264 core 104 r1713 c276662
Encoding settings                : cabac=1 / ref=4 / deblock=1:0:0 / analyse=0x3:0x113 / me=umh / 
subme=7 / psy=1 / psy_rd=1.00:0.00 / mixed_ref=1 / me_range=16 / chroma_me=1 / trellis=1 / 8x8dct=1 / 
cqm=0 / deadzone=21,11 / fast_pskip=0 / chroma_qp_offset=-2 / threads=6 / sliced_threads=0 / nr=0 / 
decimate=0 / interlaced=0 / constrained_intra=0 / bframes=3 / b_pyramid=1 / b_adapt=1 / b_bias=0 / 
direct=1 / weightb=1 / open_gop=0 / weightp=2 / keyint=250 / keyint_min=25 / scenecut=40 / intra_refresh=0 / 
rc=2pass / mbtree=0 / bitrate=8614 / ratetol=1.0 / qcomp=0.60 / qpmin=10 / qpmax=51 / qpstep=4 / 
cplxblur=20.0 / qblur=0.5 / ip_ratio=1.40 / pb_ratio=1.30 / aq=1:1.00
Language                         : English

Audio #1
ID                               : 2
Format                           : DTS
Format/Info                      : Digital Theater Systems
Muxing mode                      : Header stripping
Codec ID                         : A_DTS
Duration                         : 2h 3mn
Bit rate mode                    : Constant
Bit rate                         : 1 510 Kbps
Channel(s)                       : 6 channels
Channel positions                : Front: L C R, Side: L R, LFE
Sampling rate                    : 48.0 KHz
Bit depth                        : 24 bits
Stream size                      : 1.31 GiB (14%)
Title                            : DTS
Language                         : English

Audio #2
ID                               : 3
Format                           : AC-3
Format/Info                      : Audio Coding 3
Mode extension                   : CM (complete main)
Muxing mode                      : Header stripping
Codec ID                         : A_AC3
Duration                         : 2h 3mn
Bit rate mode                    : Constant
Bit rate                         : 640 Kbps
Channel(s)                       : 6 channels
Channel positions                : Front: L C R, Side: L R, LFE
Sampling rate                    : 48.0 KHz
Bit depth                        : 16 bits
Stream size                      : 567 MiB (6%)
Title                            : AC3 640
Language                         : English

Text
ID                               : 4
Format                           : UTF-8
Codec ID                         : S_TEXT/UTF8
Codec ID/Info                    : UTF-8 Plain Text
Title                            : Nederlands
Language                         : Dutch



